<svg width="1em" height="1em" viewBox="0 0 28 28" fill="none" xmlns="http://www.w3.org/2000/svg">
<path fill-rule="evenodd" clip-rule="evenodd" d="M16.1679 3.01897L16.0911 3.08613L15.9004 3.10572L15.88 3.17319L15.681 3.18251C15.681 3.18251 13.2007 4.19272 10.2442 4.75145C10.3203 4.66501 10.3869 4.56894 10.3869 4.56894C10.3869 4.56894 9.29019 4.83851 9.02333 5.09814C8.9466 4.99242 8.87049 4.915 8.87049 4.915L8.80331 5.00175L8.87049 5.10746L8.83197 5.20478L8.71826 5.25204H8.64153L8.61318 5.17556L8.30811 5.16561L8.27914 5.32915L8.19317 5.38668L7.96452 5.5409L7.87885 5.60806L7.63048 5.58909L7.58303 5.4442C7.58303 5.4442 6.76241 6.14814 6.0475 6.36796C6.85794 5.50203 8.55586 4.25055 8.55586 4.25055L8.54631 4.14514L8.41288 4.13582C8.41288 4.13582 5.303 6.21498 4.85495 6.61919C5.16002 6.30142 5.44629 6.06978 5.44629 6.06978C5.44629 6.06978 4.12062 6.75351 3.8818 7.39868C3.83435 7.31225 3.81524 7.27307 3.81524 7.27307C3.81524 7.27307 4.09165 7.07998 4.22478 6.61919C4.5015 6.10865 4.93137 5.60806 4.93137 5.60806L4.22478 6.36796L3.99643 6.41678L3.69136 6.90742L3.73913 6.94629L3.33884 7.3878L3.42389 7.53269L3.38598 7.69655L3.29076 7.60079L3.18599 7.43631L1.89791 8.82273L1.83135 8.69743L0.887172 9.55465L1.38361 9.41909L0 10.7956C0 10.7956 1.91794 11.6621 5.09377 10.16C8.20673 8.68872 11.6747 9.72815 11.6747 9.72815C11.6747 9.72815 4.49225 10.738 2.88986 16.4833C1.39131 21.8562 7.26809 24.3374 10.158 24.3653L13.9162 24.3374C13.9162 24.3374 13.4299 24.2789 12.9433 24.1054C14.2117 24.0193 14.7365 23.8461 14.7365 23.8461C14.7365 23.8461 14.6792 23.856 14.2977 23.7307C16.5293 23.528 17.1216 23.1624 17.1216 23.1624L16.892 23.1048V23.0563C16.892 23.0563 18.5616 22.8937 21.4989 21.4296C19.8971 22.1043 18.084 22.2386 18.084 22.2386L18.3422 21.9398C18.3422 21.9398 18.5138 21.9877 18.6183 21.9501C19.1431 21.6712 19.1526 21.266 19.1526 21.266C19.1526 21.266 19.1622 21.5841 19.3914 21.3341C19.658 21.0928 19.4481 20.8917 19.4481 20.8917L19.2959 20.8239C19.2959 20.8239 19.592 20.5067 19.8971 20.2655C19.7255 20.1887 19.7452 19.9191 19.7452 19.9191L19.9258 19.8998L19.9729 19.7848L19.8299 19.7269L19.7255 19.6302L19.8876 19.5827C19.8876 19.5827 20.9174 18.0426 22.501 16.6662C21.8428 17.0029 21.6517 17.1089 21.6517 17.1089C21.6517 17.1089 21.9454 16.6006 24.2183 15.2322C25.7474 14.3112 26.078 13.5093 26.078 13.5093C26.078 13.5093 24.9551 15.2098 23.1303 15.1656C21.175 15.1168 19.7255 15.387 19.7255 15.387C19.7255 15.387 20.6216 15.2126 21.1276 14.703C21.1276 14.703 19.3859 15.3183 18.3514 14.6165C15.9953 13.0184 12.1517 13.7208 12.1517 13.7208C12.1517 13.7208 8.52998 14.1875 7.78271 17.0129C7.24899 19.0342 9.53887 19.592 9.53887 19.592C9.53887 19.592 11.0017 19.9415 11.5412 18.5336C11.8657 17.6866 11.1601 17.1851 11.1601 17.1851C11.1601 17.1851 9.97183 16.0042 10.855 15.0108C11.8469 13.8946 14.8604 14.6256 14.8604 14.6256C14.8604 14.6256 18.9431 15.6463 16.2723 20.4968C14.5371 23.5762 10.7595 23.269 10.7595 23.269C10.7595 23.269 6.92481 23.441 6.44779 19.3809C6.31498 18.1683 6.48631 17.5134 6.48631 17.5134L6.66719 17.3564L6.58892 17.2989V17.2199C6.58892 17.2199 6.59601 17.14 6.74577 17.14C6.89554 17.14 6.82435 16.9672 6.82435 16.9672L6.6598 16.9522C6.6598 16.9522 6.65302 16.7722 6.81727 16.6354C6.73807 16.613 6.74577 16.5698 6.74577 16.5698C6.74577 16.5698 6.82435 16.3829 6.98891 16.4547C7.00308 16.7218 7.16856 16.534 7.16856 16.534C7.16856 16.534 6.99661 16.5633 7.10385 16.173C7.28227 15.7838 7.8542 15.4442 7.8542 15.4442C7.8542 15.4442 7.76853 15.4361 7.69026 15.3497C8.21227 15.1775 8.41997 14.7366 8.41997 14.7366L8.33399 14.7145C8.33399 14.7145 8.2699 14.809 8.13369 14.7872C8.16235 14.6787 8.2058 14.628 8.2058 14.628L8.13369 14.6141V14.4552L7.94757 14.4409C7.94757 14.4409 7.81167 14.3544 7.95497 14.2027C8.32721 14.1306 8.29825 13.7478 8.29825 13.7478L8.43384 13.791L8.52721 13.6465L8.58452 13.4873L8.65571 13.408L8.8785 13.5025L9.00638 13.5675L9.32809 13.8492L9.06462 13.3791L9.12071 13.2572L9.15676 13.1406L8.97773 13.1204L8.97095 13.033L9.15676 12.9612L9.17124 12.9033L9.22856 12.8813L9.25691 12.7084L9.53548 12.6872L9.66491 12.3984C9.66491 12.3984 11.141 10.3024 14.6311 10.5067C17.2643 10.6609 17.9348 12.2697 21.0792 12.047C22.9873 11.9121 23.5016 12.1245 23.5016 12.1245C23.5016 12.1245 22.5291 11.4311 21.4989 11.373C22.5494 11.3154 23.3688 11.1998 23.3688 11.1998L23.2347 11.127L23.1068 11.0555L23.0064 11.0117L22.8776 11.0987L22.7056 11.1133L22.4338 10.9977L22.3056 10.9551L22.1762 10.9691L22.048 11.127L21.8622 11.0987L21.3322 10.9977L21.9044 10.9691L22.0761 10.8528L22.2052 10.7816H22.3765L22.3916 10.8814L22.6776 10.9109L22.8061 10.9977L22.9916 10.9109L23.178 10.9691L23.3213 10.9109L23.4643 10.8388L23.5641 10.8102L23.7219 10.8528L23.9795 10.6227L24.1086 10.6084L24.1931 10.753L24.2655 10.8102L24.1931 10.9252H24.337L24.3801 10.738L24.3515 10.6659L24.5505 10.6084H24.7662L24.7943 10.753L24.8661 10.6659L24.8809 10.5645L25.0664 10.4349L25.7813 10.045L26.025 9.97223L26.14 9.88579L26.6688 9.82827C26.6688 9.82827 27.3985 9.59787 28 8.81775C28 8.81775 25.6386 10.3624 22.1195 9.52511C19.6666 8.9415 19.2722 8.3268 19.2722 8.3268L19.458 8.25467L19.1723 8.16792L19.0284 8.09609L18.7708 8.12501L18.5708 7.96675H18.185L18.1277 7.86539L17.741 7.83585L17.6985 7.7634L18.4707 7.74972L18.6423 7.90829L18.8288 7.87907L19.0571 7.99442L19.1576 8.01028L19.2864 8.09609H19.5437L19.63 8.21176L19.5578 8.29788L19.687 8.44309L19.8592 8.48568V8.29788L19.7591 8.18253L19.8592 8.02458H19.7153L19.6441 7.96675L19.6158 7.70588L19.4435 7.66297C19.4435 7.66297 16.8113 6.04584 14.636 6.9696C14.636 6.9696 14.7648 6.81103 15.004 6.72491C15.0711 6.71558 15.0231 6.64748 15.0231 6.64748L15.0798 6.61919L15.3855 6.63753L15.3565 6.57069L15.7956 6.56136L15.7666 6.46435L16.0147 6.46062L15.7571 6.38724L15.6492 6.52902L15.5614 6.43077L15.4332 6.38724L15.4529 6.53959L15.2995 6.50321L15.1094 6.56136L14.9753 6.58996L14.8225 6.56136L14.8132 6.47461L14.6416 6.58996L14.546 6.57069L14.4123 6.55141L14.3935 6.30142L14.6311 6.15684C14.6311 6.15684 12.6956 6.07942 10.9308 6.77248C9.16601 7.46553 8.98512 7.78299 7.02003 8.19714C8.53676 7.70588 9.42362 7.09988 9.88154 6.81103C11.1502 6.07942 13.8117 4.61744 14.7177 4.07767C14.7365 3.97134 14.7648 3.97134 14.7648 3.97134L14.8699 4.0385L15.0132 3.87588L15.1657 3.83733V3.7798L15.4043 3.77017L15.4144 3.6828L15.5281 3.69306L15.5568 3.60631L15.7571 3.5491L15.5186 3.51925L15.509 3.4524L15.7571 3.43312L15.7861 3.35632L15.9096 3.42348L16.1192 3.19246L16.2917 3.16386L16.3873 3L16.1679 3.01897ZM16.5876 6.23148L16.3105 6.34963L16.1965 6.35834L16.1398 6.34124L16.109 6.3658L16.0702 6.45877L16.2723 6.45504L16.301 6.40653L17.2547 6.33004L18.5616 6.25325L17.3884 6.18577L17.2929 6.27314L17.1311 6.26226L17.1108 6.23335L17.0119 6.19883L16.8255 6.30144H16.7111L16.6825 6.12732L16.5876 6.23148ZM16.0147 6.46062L16.0634 6.47432L16.0702 6.45877L16.0147 6.46062Z" fill="#E41E26"/>
</svg>
